<svg width="53" height="53" viewBox="0 0 53 53" fill="none" xmlns="http://www.w3.org/2000/svg">
<path fill-rule="evenodd" clip-rule="evenodd" d="M9.9375 0C4.44917 0 0 4.44917 0 9.9375V43.0625C0 48.5508 4.44917 53 9.9375 53H43.0625C48.5508 53 53 48.5508 53 43.0625V9.9375C53 4.44917 48.5508 0 43.0625 0H9.9375ZM10 40.0859V14H44.7812V40.0859H10ZM27.3906 27.985L39.593 16.8984H15.1882L27.3906 27.985ZM18.5939 23.8982L12.8984 18.7245V33.405L18.5939 23.8982ZM20.7822 25.8981L14.0143 37.1875H40.7669L33.9991 25.8981L27.3906 31.8979L20.7822 25.8981ZM36.1874 23.8982L41.8828 33.405V18.7245L36.1874 23.8982Z" fill="black"/>
</svg>
